<svg xmlns="http://www.w3.org/2000/svg" xmlns:xlink="http://www.w3.org/1999/xlink" width="500" zoomAndPan="magnify" viewBox="0 0 375 374.999991" height="500" preserveAspectRatio="xMidYMid meet" version="1.0"><defs><g/><clipPath id="d51850ce48"><path d="M 0.00390625 85.609375 L 373.78125 85.609375 L 373.78125 271.3125 L 0.00390625 271.3125 Z M 0.00390625 85.609375 " clip-rule="nonzero"/></clipPath><clipPath id="2a4d3479d2"><path d="M 8.0625 92.90625 L 140.589844 92.90625 L 140.589844 264.027344 L 8.0625 264.027344 Z M 8.0625 92.90625 " clip-rule="nonzero"/></clipPath><clipPath id="250ea2d7bb"><path d="M 18 99.296875 L 133.773438 99.296875 L 133.773438 257 L 18 257 Z M 18 99.296875 " clip-rule="nonzero"/></clipPath></defs><rect x="-37.5" width="450" fill="#ffffff" y="-37.499999" height="449.999989" fill-opacity="1"/><rect x="-37.5" width="450" fill="#ffffff" y="-37.499999" height="449.999989" fill-opacity="1"/><g clip-path="url(#d51850ce48)"><path stroke-linecap="butt" transform="matrix(0.826953, 0, 0, 0.826953, 0.00551012, 85.610745)" fill="none" stroke-linejoin="miter" d="M -0.00193949 -0.00165642 L 452.454281 -0.00165642 L 452.454281 224.561362 L -0.00193949 224.561362 Z M -0.00193949 -0.00165642 " stroke="#d60404" stroke-width="7.255548" stroke-opacity="1" stroke-miterlimit="4"/></g><g clip-path="url(#2a4d3479d2)"><path fill="#ffffff" d="M 8.0625 92.90625 L 140.589844 92.90625 L 140.589844 264.257812 L 8.0625 264.257812 Z M 8.0625 92.90625 " fill-opacity="1" fill-rule="nonzero"/></g><g clip-path="url(#250ea2d7bb)"><path fill="#070707" d="M 44.175781 224.671875 C 44.703125 224.84375 44.082031 223.761719 44.160156 223.265625 C 47.316406 221.589844 46.96875 216.414062 50.703125 215.320312 C 50.824219 213.886719 51.714844 213.21875 52.105469 212.050781 C 53.957031 212.425781 54.800781 211.738281 56.308594 211.117188 C 56.605469 210.996094 57.78125 210.914062 58.179688 210.648438 C 59.738281 209.601562 59.855469 208.246094 60.984375 206.910156 C 60.035156 205.183594 61.300781 204.132812 60.984375 201.769531 C 63.085938 202.003906 62.570312 199.621094 64.722656 199.902344 C 64.640625 198.734375 65.441406 198.441406 66.121094 198.035156 C 66.023438 196.863281 66.636719 195.957031 67.058594 194.761719 C 67.289062 194.089844 67.78125 193.265625 67.992188 192.425781 C 68.234375 191.449219 68.546875 190.914062 68.925781 190.089844 C 69.246094 189.398438 69.289062 188.347656 69.859375 187.285156 C 70 187.019531 70.695312 186.574219 70.796875 186.351562 C 70.90625 186.09375 70.726562 185.691406 70.796875 185.417969 C 70.96875 184.730469 71.964844 182.167969 70.796875 180.277344 C 67.785156 181.449219 66.109375 179.25 63.785156 178.40625 C 63.355469 177.910156 63.800781 176.878906 63.320312 176.070312 C 63.097656 175.699219 62.105469 175.5 61.917969 175.136719 C 61.613281 174.542969 61.351562 172.539062 60.984375 171.867188 C 60.847656 171.617188 60.5625 171.917969 60.515625 171.398438 C 60.464844 170.820312 60.753906 169.988281 60.984375 169.0625 C 61.46875 167.089844 61.613281 165.84375 63.320312 164.855469 C 63.328125 163.753906 62.515625 163.484375 62.851562 162.054688 C 63.738281 161.851562 64.023438 161.050781 65.1875 161.117188 C 65.308594 159.75 64.132812 159.683594 64.253906 158.316406 C 66.121094 157.535156 66.167969 154.9375 69.394531 155.511719 C 71.035156 155.386719 68.546875 153.441406 69.859375 153.644531 C 69.511719 151.890625 71.644531 152.625 71.730469 151.304688 C 72.070312 150.03125 70.800781 150.367188 70.796875 149.4375 C 70.453125 148.160156 71.726562 148.496094 71.730469 147.566406 C 71.550781 146.832031 70.859375 146.433594 70.796875 145.699219 C 70.726562 144.953125 71.160156 144.882812 71.261719 144.296875 C 71.523438 142.808594 71.179688 141.492188 71.730469 139.625 C 71.773438 139.484375 72.175781 139.601562 72.195312 139.15625 C 72.214844 138.796875 72.605469 138.65625 72.664062 138.222656 C 72.851562 136.917969 71.890625 135.859375 72.664062 134.953125 C 70.757812 132.1875 68.328125 129.941406 66.589844 127.007812 C 64.082031 126.402344 62.085938 125.285156 58.648438 125.605469 C 57.839844 125.605469 57.679688 125.054688 57.246094 124.671875 C 56.925781 124.390625 56.46875 124.179688 56.308594 123.738281 C 55.078125 123.621094 54.269531 123.890625 53.039062 123.738281 C 52.085938 123.617188 51.082031 122.925781 50.234375 122.804688 C 48.09375 122.5 46.199219 123.042969 44.160156 122.335938 C 43.988281 122.273438 44.160156 121.890625 43.695312 121.867188 C 43.566406 121.863281 43.339844 121.914062 43.226562 121.867188 C 42.8125 121.703125 41.46875 121.339844 40.421875 120.933594 C 40.230469 120.859375 40.441406 120.488281 39.957031 120.464844 C 39.828125 120.460938 39.601562 120.515625 39.488281 120.464844 C 39.203125 120.351562 39.109375 120.03125 39.019531 120 C 38.246094 119.71875 37.359375 119.707031 36.683594 119.53125 C 36.566406 119.503906 36.644531 119.089844 36.21875 119.066406 C 35.136719 119.007812 34.824219 118.976562 33.882812 118.597656 C 33.683594 118.519531 32.035156 118.160156 31.542969 117.664062 C 29.863281 118.785156 29.675781 121.402344 28.273438 122.804688 C 27.148438 122.609375 27.261719 123.660156 25.9375 123.269531 C 25.113281 123.695312 25.082031 124.90625 24.535156 125.605469 C 23.410156 125.414062 23.523438 126.460938 22.199219 126.074219 C 20.746094 126.648438 20.320312 128.246094 17.992188 127.941406 C 18.292969 127.546875 18.09375 126.378906 18.460938 126.074219 C 19.242188 125.433594 18.6875 124.335938 19.394531 123.269531 C 19.738281 122.761719 20.023438 122.421875 20.332031 121.867188 C 20.722656 121.171875 20.984375 119.910156 21.265625 119.53125 C 21.5625 119.128906 22.546875 118.71875 23.132812 118.128906 C 23.691406 117.574219 24.121094 116.542969 24.535156 116.261719 C 25.097656 115.882812 25.746094 116.066406 26.40625 115.792969 C 26.605469 115.710938 26.375 115.355469 26.871094 115.328125 C 28.132812 115.261719 29.191406 114.335938 30.609375 113.457031 C 33.5625 114.144531 37.335938 114.136719 40.890625 114.394531 C 41.636719 114.449219 41.6875 114.785156 42.292969 114.859375 C 44.941406 115.175781 47.605469 114.460938 49.769531 114.859375 C 50.898438 115.066406 52.109375 115.808594 53.039062 116.261719 C 54.671875 116.566406 55.589844 115.292969 57.710938 115.792969 C 58.761719 116.042969 58.863281 116.171875 60.984375 115.792969 C 62.273438 115.566406 63.121094 114.601562 64.722656 114.859375 C 66.539062 114.929688 66.769531 115.84375 68.925781 116.261719 C 71.0625 115.21875 75.261719 112.535156 77.804688 114.859375 C 78.417969 114.382812 79.527344 114.402344 80.140625 113.925781 C 80.894531 113.820312 80.371094 112.695312 80.609375 112.054688 C 80.679688 111.863281 81.519531 111.238281 81.542969 111.121094 C 81.710938 110.253906 81.054688 109.710938 81.074219 108.785156 C 81.074219 108.878906 81.527344 108.578125 81.542969 108.316406 C 81.601562 107.136719 81.457031 106.042969 82.011719 105.046875 C 82.144531 104.800781 82.449219 105.105469 82.476562 104.582031 C 82.542969 103.359375 83.355469 103.75 83.410156 102.710938 C 83.464844 101.738281 84.511719 102.523438 85.28125 101.777344 C 85.589844 101.476562 85.382812 100.621094 85.75 100.375 C 86.183594 100.273438 86.71875 100.503906 87.148438 100.375 C 87.632812 100.230469 88.28125 100.132812 89.019531 99.90625 C 89.21875 99.84375 89.554688 99.441406 89.492188 99.441406 C 90.257812 99.359375 90.277344 99.886719 90.886719 99.90625 C 91.386719 99.921875 91.789062 99.433594 91.824219 99.441406 C 92.207031 99.472656 92.601562 99.84375 93.222656 99.90625 C 94.265625 100.015625 94.664062 99.949219 95.5625 100.375 C 95.785156 100.480469 95.515625 100.8125 96.027344 100.839844 C 96.609375 100.875 96.832031 101.550781 97.429688 102.242188 C 97.707031 102.558594 97.789062 103.179688 98.363281 103.179688 C 99.269531 103.179688 98.390625 104.609375 98.832031 105.046875 C 98.871094 105.085938 99.285156 105 99.300781 105.046875 C 99.414062 105.457031 99.128906 106.058594 99.300781 106.449219 C 99.386719 106.65625 99.714844 106.433594 99.765625 106.917969 C 99.84375 107.667969 99.386719 107.984375 99.300781 108.785156 C 99.121094 110.359375 99.023438 112.070312 98.832031 113.925781 C 99.164062 115.621094 102.238281 114.570312 103.972656 114.859375 C 104.890625 114.484375 105.023438 115.675781 105.375 115.792969 C 105.933594 115.980469 106.675781 115.621094 107.242188 115.792969 C 107.433594 115.855469 108.066406 116.710938 108.175781 116.730469 C 108.929688 116.863281 108.980469 116.285156 109.578125 116.261719 C 108.199219 114.675781 105.832031 114.085938 104.90625 112.054688 C 104.035156 111.992188 103.347656 111.746094 103.035156 111.121094 C 102.601562 110.621094 101.3125 110.976562 101.636719 109.71875 C 102.839844 108.96875 105.519531 109.980469 106.308594 111.121094 C 106.648438 111.089844 106.589844 110.292969 106.308594 109.71875 C 106.167969 109.429688 105.484375 109.027344 105.375 108.785156 C 104.929688 107.847656 104.679688 106.824219 104.4375 105.980469 C 104.0625 105.578125 103.160156 105.703125 103.035156 105.046875 C 103.183594 103.476562 104.597656 103.183594 105.839844 102.710938 C 105.488281 104.460938 107.625 103.730469 107.710938 105.046875 C 108.8125 105.039062 109.082031 105.851562 110.511719 105.515625 C 111.625 106.898438 113.273438 107.738281 114.71875 108.785156 C 115.28125 110.394531 115.734375 111.851562 116.589844 112.992188 C 119.578125 116.976562 126.050781 117.570312 130.605469 120 C 130.980469 120.871094 131.386719 121.710938 131.539062 122.804688 C 131.894531 124.160156 133.753906 124.011719 133.410156 126.074219 C 134.015625 127.488281 132.480469 126.898438 132.007812 127.476562 C 131.953125 127.539062 132.078125 127.902344 132.007812 127.941406 C 131.835938 128.046875 131.195312 127.792969 131.074219 127.941406 C 131.027344 128 131.128906 128.382812 131.074219 128.410156 C 130.90625 128.488281 130.25 128.273438 130.136719 128.410156 C 129.632812 129.027344 129.179688 128.605469 128.269531 128.878906 C 127.109375 129.222656 126.074219 130.175781 123.597656 129.8125 C 122.882812 129.710938 122.125 128.957031 121.261719 128.878906 C 120.457031 128.800781 120.242188 129.3125 119.390625 129.34375 C 118.34375 129.382812 117.953125 128.675781 116.121094 128.878906 C 115.277344 128.96875 114.148438 129.285156 113.316406 129.8125 C 112.628906 130.25 110.75 130.121094 109.578125 130.746094 C 108.695312 130.796875 109.257812 132.292969 108.175781 132.148438 C 108.121094 134.316406 108.285156 135.101562 107.710938 136.820312 C 107.652344 136.984375 107.265625 136.824219 107.242188 137.289062 C 107.203125 137.960938 106.742188 140.375 106.308594 141.027344 C 105.660156 142 105.328125 143.375 105.375 145.230469 C 104.921875 145.246094 105.007812 145.800781 104.90625 146.167969 C 103.335938 146.621094 102.574219 147.886719 101.636719 148.96875 C 102.855469 150.132812 101.683594 151.628906 101.167969 153.175781 C 100.851562 154.125 100.941406 155.253906 100.699219 155.980469 C 100.644531 156.148438 100.257812 155.984375 100.234375 156.445312 C 100.214844 156.835938 99.570312 157.195312 99.765625 157.847656 C 98.316406 158.578125 97.3125 159.757812 96.027344 160.652344 C 94.792969 165.003906 98.691406 166.582031 97.898438 171.867188 C 98.660156 173.128906 99.722656 174.089844 101.167969 174.671875 C 101.640625 176.917969 103.582031 177.800781 103.503906 179.808594 C 103.507812 179.730469 103.050781 180 103.035156 180.277344 C 102.992188 181.207031 102.792969 181.667969 102.101562 182.613281 C 101.257812 183.769531 99.390625 185.371094 98.363281 186.820312 C 92.855469 187.382812 91.867188 192.472656 86.683594 193.359375 C 85.847656 195.351562 85.003906 197.617188 83.878906 199.433594 C 83.71875 199.691406 83.4375 199.363281 83.410156 199.902344 C 83.382812 200.472656 82.507812 201.027344 82.007812 201.769531 C 81.667969 202.28125 81.375 202.617188 81.074219 203.171875 C 79.546875 206 76.304688 208.738281 73.132812 210.648438 C 73.566406 211.382812 72.691406 211.882812 72.664062 212.050781 C 72.0625 215.496094 73.113281 219.460938 74.066406 221.863281 C 73.59375 222.214844 73.144531 222.4375 72.664062 222.796875 C 71.625 223.574219 71.683594 223.8125 70.328125 222.796875 C 69.964844 222.523438 69.453125 222.4375 69.394531 221.863281 C 68.488281 222.003906 67.875 222.34375 67.058594 221.863281 C 67.027344 221.84375 67.496094 221.222656 67.523438 220.980469 C 67.488281 221.042969 67.097656 220.535156 67.050781 220.460938 C 67.046875 220.453125 67.046875 220.453125 67.046875 220.453125 C 66.738281 220.160156 65.859375 220.128906 66.121094 220.460938 C 66.070312 220.398438 65.191406 220.007812 65.1875 219.996094 C 65.089844 219.425781 66.214844 219.042969 65.1875 218.125 C 62.660156 218.402344 61.800781 220.34375 61.449219 222.796875 C 60.320312 222.828125 60.164062 223.96875 59.582031 224.667969 C 59.140625 225.199219 57.609375 225.597656 58.179688 227.003906 C 57.867188 227.453125 56.285156 226.929688 55.84375 227.472656 C 55.824219 227.496094 54.070312 228.996094 53.972656 228.875 C 52.890625 227.519531 54.609375 230.402344 53.039062 228.875 C 52.359375 229.078125 53.085938 229.285156 53.039062 229.808594 C 51.492188 229.972656 51.011719 231.203125 50.234375 232.144531 C 49.476562 232.273438 49.429688 231.699219 48.832031 231.675781 C 49.355469 232.273438 49.089844 232.273438 48.832031 232.609375 C 48.6875 232.796875 48.085938 233.386719 47.898438 233.546875 C 47.53125 233.859375 46.921875 233.695312 46.496094 234.011719 C 46.496094 233.75 46.117188 233.480469 46.03125 234.011719 C 44.652344 234.65625 44.136719 236.171875 42.757812 236.816406 C 42.578125 237.324219 42.199219 237.9375 42.757812 237.285156 C 44.105469 236.652344 44.625 235.199219 45.925781 234.535156 C 44.945312 235.546875 43.652344 237.332031 42.757812 238.21875 C 42 238.347656 41.953125 237.773438 41.355469 237.75 C 41.898438 238.441406 41.898438 238.929688 41.355469 239.621094 C 40.472656 239.96875 41.035156 241.011719 39.957031 240.085938 C 40.507812 241.5 41.09375 242.871094 40.421875 244.292969 C 39.253906 244.96875 38.585938 245.421875 37.152344 244.761719 C 35.570312 246.296875 36.035156 249.875 34.347656 251.300781 C 34.503906 253.480469 33.984375 254.988281 33.414062 256.441406 C 32.871094 256.367188 32.582031 256.542969 32.480469 256.910156 C 30.105469 257.550781 29.871094 253.625 28.273438 255.039062 C 26.871094 254.730469 28.722656 254.039062 28.273438 253.171875 C 28.179688 251.386719 27.066406 253.160156 26.40625 252.238281 C 26.15625 251.890625 27.328125 251.367188 27.339844 251.300781 C 27.417969 250.65625 26.683594 250.207031 25.46875 250.367188 C 25.96875 250.246094 25.625 249.277344 25.9375 248.964844 C 26.5 248.40625 25.691406 248.597656 25.9375 247.5625 C 25.960938 247.460938 26.382812 247.511719 26.40625 247.097656 C 26.410156 246.96875 26.359375 246.742188 26.40625 246.628906 C 26.484375 246.433594 26.84375 244.785156 27.339844 244.292969 C 27.421875 243.273438 26.957031 242.808594 25.9375 242.890625 C 26.101562 242.277344 26.757812 242.15625 26.871094 241.488281 C 26.664062 240.914062 26.273438 240.53125 25.46875 240.554688 C 25.625 238.902344 26.753906 239.40625 25.9375 237.75 C 27.746094 236.449219 29.851562 235.433594 32.011719 234.480469 C 33.078125 234.351562 33.769531 234.59375 33.882812 235.414062 C 34.582031 235.40625 33.925781 234.847656 33.882812 234.949219 C 34.1875 234.269531 35.4375 234.285156 35.75 233.078125 C 36.832031 232.929688 37.542969 233.152344 38.085938 233.546875 C 37.199219 232.648438 38.726562 232.246094 39.640625 231.503906 C 39.589844 231.558594 39.539062 231.617188 39.488281 231.675781 C 39.210938 231.988281 38.433594 232.65625 39.019531 233.078125 C 39.085938 232.242188 39.851562 232.335938 40.421875 231.675781 C 41.851562 230.03125 40.945312 230.296875 39.992188 231.167969 C 40.273438 230.851562 40.867188 230.226562 40.890625 229.808594 C 40.921875 229.210938 41.671875 229.21875 41.824219 228.875 C 42.269531 227.886719 41.820312 228.144531 42.757812 228.40625 C 41.507812 225.65625 44.011719 228.773438 42.757812 226.070312 C 43.007812 225.980469 43.390625 226.761719 43.695312 226.535156 C 43.730469 226.507812 42.949219 225.484375 43.226562 225.132812 C 43.285156 225.054688 44.0625 225.796875 44.160156 225.601562 C 44.234375 225.453125 43.570312 224.703125 43.695312 224.199219 C 43.78125 223.828125 44.296875 224.671875 44.175781 224.671875 Z M 51.636719 230.273438 C 51.664062 229.988281 51.707031 229.722656 52.105469 229.808594 C 51.683594 228.542969 51.058594 230.878906 50.234375 230.742188 C 49.25 232.671875 50.851562 230.566406 51.636719 230.273438 Z M 38.566406 216.730469 C 39.167969 216.292969 38.746094 216.480469 38.566406 216.730469 C 38.078125 217.085938 37.984375 217.171875 37.632812 217.664062 C 37.035156 218.097656 37.457031 217.910156 37.632812 217.664062 C 38.125 217.308594 38.21875 217.21875 38.566406 216.730469 " fill-opacity="1" fill-rule="nonzero"/></g><path fill="#070707" d="M 52.105469 229.808594 C 51.707031 229.722656 51.664062 229.992188 51.636719 230.273438 C 50.851562 230.566406 49.25 232.671875 50.234375 230.742188 C 51.058594 230.878906 51.683594 228.542969 52.105469 229.808594 " fill-opacity="1" fill-rule="nonzero"/><path fill="#070707" d="M 46.496094 234.011719 C 46.128906 233.933594 46.066406 234.164062 46.035156 234.425781 C 45.996094 234.460938 45.960938 234.5 45.925781 234.535156 C 44.625 235.199219 44.105469 236.652344 42.757812 237.285156 C 42.199219 237.9375 42.578125 237.328125 42.757812 236.816406 C 44.136719 236.171875 44.652344 234.65625 46.03125 234.011719 C 46.117188 233.480469 46.496094 233.75 46.496094 234.011719 " fill-opacity="1" fill-rule="nonzero"/><path fill="#070707" d="M 46.035156 234.425781 C 46.066406 234.164062 46.128906 233.933594 46.496094 234.015625 C 46.355469 234.121094 46.199219 234.261719 46.035156 234.425781 " fill-opacity="1" fill-rule="nonzero"/><path fill="#070707" d="M 46.03125 222.332031 C 46.207031 222.082031 46.628906 221.898438 46.03125 222.332031 " fill-opacity="1" fill-rule="nonzero"/><path fill="#070707" d="M 46.035156 234.425781 C 46.035156 234.445312 46.03125 234.460938 46.03125 234.480469 C 45.996094 234.496094 45.960938 234.515625 45.925781 234.539062 C 45.960938 234.5 45.996094 234.460938 46.035156 234.425781 " fill-opacity="1" fill-rule="nonzero"/><path fill="#070707" d="M 46.03125 222.332031 C 45.679688 222.820312 45.585938 222.910156 45.09375 223.265625 C 45.445312 222.773438 45.539062 222.6875 46.03125 222.332031 " fill-opacity="1" fill-rule="nonzero"/><path fill="#070707" d="M 45.097656 223.265625 C 44.917969 223.515625 44.496094 223.699219 45.097656 223.265625 " fill-opacity="1" fill-rule="nonzero"/><path fill="#070707" d="M 39.992188 231.167969 C 40.945312 230.300781 41.851562 230.03125 40.421875 231.675781 C 39.851562 232.335938 39.085938 232.242188 39.019531 233.078125 C 38.433594 232.660156 39.214844 231.988281 39.488281 231.675781 C 39.539062 231.617188 39.589844 231.558594 39.644531 231.503906 C 39.757812 231.414062 39.867188 231.316406 39.957031 231.210938 C 39.964844 231.195312 39.980469 231.183594 39.992188 231.167969 " fill-opacity="1" fill-rule="nonzero"/><path fill="#070707" d="M 39.992188 231.167969 C 39.980469 231.183594 39.964844 231.195312 39.957031 231.210938 C 39.867188 231.316406 39.757812 231.414062 39.644531 231.503906 C 39.757812 231.382812 39.875 231.269531 39.992188 231.167969 " fill-opacity="1" fill-rule="nonzero"/><path fill="#070707" d="M 98.96875 241.703125 C 98.96875 247.855469 93.980469 252.84375 87.832031 252.84375 C 81.679688 252.84375 76.691406 247.855469 76.691406 241.703125 C 76.691406 235.550781 81.679688 230.566406 87.832031 230.566406 C 93.980469 230.566406 98.96875 235.550781 98.96875 241.703125 " fill-opacity="1" fill-rule="nonzero"/><g fill="#d60404" fill-opacity="1"><g transform="translate(141.548398, 164.826054)"><g><path d="M 54.390625 -37.359375 L 54.390625 -57.609375 L 3.625 -57.609375 L 3.625 -45.015625 L 9.875 -43.375 L 9.875 -14.15625 L 3.625 -12.515625 L 3.625 0 L 34.734375 0 L 34.734375 -12.515625 L 26.828125 -14.15625 L 26.828125 -24.1875 L 40.65625 -24.1875 L 40.65625 -34.078125 L 26.828125 -34.078125 L 26.828125 -43.375 L 40.65625 -43.375 L 42.296875 -37.359375 Z M 54.390625 -37.359375 "/></g></g></g><g fill="#d60404" fill-opacity="1"><g transform="translate(198.000413, 164.826054)"><g><path d="M 52.09375 -10.28125 L 52.09375 -47.5625 L 40.078125 -57.609375 L 15.640625 -57.609375 L 3.625 -47.5625 L 3.625 -10.28125 L 16.046875 0 L 39.578125 0 C 41.671875 -1.695312 43.757812 -3.410156 45.84375 -5.140625 C 47.925781 -6.867188 50.007812 -8.582031 52.09375 -10.28125 Z M 32.921875 -43.375 L 35.140625 -41.640625 L 35.140625 -16.046875 L 32.84375 -14.15625 L 22.875 -14.15625 L 20.578125 -16.046875 L 20.578125 -41.640625 L 22.796875 -43.375 Z M 32.921875 -43.375 "/></g></g></g><g fill="#d60404" fill-opacity="1"><g transform="translate(253.711797, 164.826054)"><g><path d="M 52.09375 -10.28125 L 52.09375 -47.5625 L 40.078125 -57.609375 L 15.640625 -57.609375 L 3.625 -47.5625 L 3.625 -10.28125 L 16.046875 0 L 39.578125 0 C 41.671875 -1.695312 43.757812 -3.410156 45.84375 -5.140625 C 47.925781 -6.867188 50.007812 -8.582031 52.09375 -10.28125 Z M 32.921875 -43.375 L 35.140625 -41.640625 L 35.140625 -16.046875 L 32.84375 -14.15625 L 22.875 -14.15625 L 20.578125 -16.046875 L 20.578125 -41.640625 L 22.796875 -43.375 Z M 32.921875 -43.375 "/></g></g></g><g fill="#d60404" fill-opacity="1"><g transform="translate(309.42318, 164.826054)"><g><path d="M 58.671875 -33.828125 L 58.671875 -57.609375 L 1.40625 -57.609375 L 1.40625 -33.828125 L 13.578125 -33.828125 L 15.21875 -44.28125 L 21.5625 -44.28125 L 21.5625 -14.15625 L 14.5625 -12.515625 L 14.5625 0 L 45.671875 0 L 45.671875 -12.515625 L 38.59375 -14.15625 L 38.59375 -44.28125 L 44.9375 -44.28125 L 46.578125 -33.828125 Z M 58.671875 -33.828125 "/></g></g></g><g fill="#d60404" fill-opacity="1"><g transform="translate(137.187512, 240.344655)"><g><path d="M 57.109375 -34.40625 L 57.109375 -48.21875 L 45.921875 -57.609375 L 3.625 -57.609375 L 3.625 -45.015625 L 9.875 -43.375 L 9.875 -14.15625 L 3.625 -12.515625 L 3.625 0 L 45.75 0 L 57.4375 -9.71875 L 57.4375 -25.1875 L 51.6875 -29.953125 Z M 26.90625 -24.609375 L 38.515625 -24.609375 L 40.484375 -22.953125 L 40.484375 -15.890625 L 38.34375 -14.15625 L 26.90625 -14.15625 Z M 26.90625 -43.375 L 38.34375 -43.375 L 40.328125 -41.71875 L 40.328125 -36.296875 L 38.34375 -34.640625 L 26.90625 -34.640625 Z M 26.90625 -43.375 "/></g></g></g><g fill="#d60404" fill-opacity="1"><g transform="translate(198.412432, 240.344655)"><g><path d="M 55.21875 -14.15625 L 44.109375 -57.609375 L 10.859375 -57.609375 L 10.859375 -45.015625 L 16.21875 -43.375 L 7.8125 -14.15625 L 1.484375 -12.515625 L 1.484375 0 L 26.171875 0 L 26.171875 -12.515625 L 22.140625 -14.15625 L 23.53125 -19.25 L 35.96875 -19.25 L 37.4375 -14.15625 L 33.078125 -12.515625 L 33.078125 0 L 62.296875 0 L 62.296875 -12.515625 Z M 29.546875 -42.046875 L 33.25 -29.140625 L 25.921875 -29.140625 Z M 29.546875 -42.046875 "/></g></g></g><g fill="#d60404" fill-opacity="1"><g transform="translate(262.188396, 240.344655)"><g><path d="M 33.90625 -45.015625 L 33.90625 -57.609375 L 3.625 -57.609375 L 3.625 -45.015625 L 9.875 -43.375 L 9.875 -14.15625 L 3.625 -12.515625 L 3.625 0 L 54.390625 0 L 54.390625 -21.96875 L 42.21875 -21.96875 L 40.578125 -14.15625 L 26.90625 -14.15625 L 26.90625 -43.375 Z M 33.90625 -45.015625 "/></g></g></g><g fill="#d60404" fill-opacity="1"><g transform="translate(317.982082, 240.344655)"><g><path d="M 33.90625 -45.015625 L 33.90625 -57.609375 L 3.625 -57.609375 L 3.625 -45.015625 L 9.875 -43.375 L 9.875 -14.15625 L 3.625 -12.515625 L 3.625 0 L 54.390625 0 L 54.390625 -21.96875 L 42.21875 -21.96875 L 40.578125 -14.15625 L 26.90625 -14.15625 L 26.90625 -43.375 Z M 33.90625 -45.015625 "/></g></g></g></svg>