<svg xmlns="http://www.w3.org/2000/svg" xmlns:xlink="http://www.w3.org/1999/xlink" width="500" zoomAndPan="magnify" viewBox="0 0 375 187.499995" height="250" preserveAspectRatio="xMidYMid meet" version="1.0"><defs><g/><clipPath id="8b5dec3265"><path d="M 33.015625 0 L 341.667969 0 L 341.667969 153.347656 L 33.015625 153.347656 Z M 33.015625 0 " clip-rule="nonzero"/></clipPath><clipPath id="b02132e39a"><path d="M 39.667969 6.023438 L 149.105469 6.023438 L 149.105469 147.328125 L 39.667969 147.328125 Z M 39.667969 6.023438 " clip-rule="nonzero"/></clipPath><clipPath id="e82966162c"><path d="M 47.875 11.304688 L 143.476562 11.304688 L 143.476562 141.730469 L 47.875 141.730469 Z M 47.875 11.304688 " clip-rule="nonzero"/></clipPath></defs><g clip-path="url(#8b5dec3265)"><path stroke-linecap="butt" transform="matrix(0.682866, 0, 0, 0.682866, 33.015597, -0.000000000000009704)" fill="none" stroke-linejoin="miter" d="M 0.0000415471 0.000000000000014211 L 452.45299 0.000000000000014211 L 452.45299 224.564706 L 0.0000415471 224.564706 Z M 0.0000415471 0.000000000000014211 " stroke="#d60404" stroke-width="8.763124" stroke-opacity="1" stroke-miterlimit="4"/></g><g clip-path="url(#b02132e39a)"><path fill="#ffffff" d="M 39.667969 6.023438 L 149.105469 6.023438 L 149.105469 147.519531 L 39.667969 147.519531 Z M 39.667969 6.023438 " fill-opacity="1" fill-rule="nonzero"/></g><g clip-path="url(#e82966162c)"><path fill="#070707" d="M 69.488281 114.832031 C 69.925781 114.972656 69.410156 114.078125 69.476562 113.671875 C 72.082031 112.285156 71.796875 108.015625 74.878906 107.109375 C 74.980469 105.925781 75.714844 105.375 76.039062 104.410156 C 77.566406 104.71875 78.261719 104.152344 79.511719 103.636719 C 79.753906 103.539062 80.726562 103.472656 81.054688 103.253906 C 82.34375 102.386719 82.4375 101.269531 83.367188 100.164062 C 82.585938 98.738281 83.628906 97.871094 83.367188 95.921875 C 85.105469 96.113281 84.679688 94.144531 86.457031 94.378906 C 86.390625 93.414062 87.050781 93.171875 87.613281 92.835938 C 87.53125 91.871094 88.039062 91.121094 88.382812 90.132812 C 88.578125 89.578125 88.980469 88.898438 89.15625 88.203125 C 89.355469 87.398438 89.617188 86.953125 89.929688 86.273438 C 90.191406 85.703125 90.230469 84.835938 90.699219 83.960938 C 90.816406 83.738281 91.390625 83.371094 91.472656 83.1875 C 91.5625 82.976562 91.414062 82.644531 91.472656 82.417969 C 91.613281 81.847656 92.4375 79.734375 91.472656 78.171875 C 88.988281 79.140625 87.601562 77.324219 85.683594 76.628906 C 85.328125 76.214844 85.695312 75.367188 85.296875 74.699219 C 85.117188 74.390625 84.292969 74.226562 84.140625 73.925781 C 83.890625 73.4375 83.671875 71.78125 83.367188 71.226562 C 83.257812 71.023438 83.019531 71.269531 82.984375 70.839844 C 82.941406 70.363281 83.179688 69.675781 83.367188 68.910156 C 83.769531 67.28125 83.890625 66.253906 85.296875 65.4375 C 85.304688 64.527344 84.632812 64.304688 84.910156 63.125 C 85.644531 62.957031 85.878906 62.292969 86.839844 62.351562 C 86.941406 61.222656 85.96875 61.167969 86.070312 60.035156 C 87.613281 59.390625 87.652344 57.246094 90.3125 57.722656 C 91.667969 57.617188 89.617188 56.011719 90.699219 56.179688 C 90.410156 54.730469 92.171875 55.335938 92.242188 54.25 C 92.523438 53.195312 91.476562 53.472656 91.472656 52.707031 C 91.191406 51.652344 92.238281 51.929688 92.242188 51.164062 C 92.097656 50.550781 91.523438 50.222656 91.472656 49.617188 C 91.414062 49 91.773438 48.945312 91.855469 48.460938 C 92.074219 47.230469 91.789062 46.144531 92.242188 44.601562 C 92.277344 44.488281 92.609375 44.582031 92.628906 44.21875 C 92.644531 43.917969 92.964844 43.804688 93.015625 43.445312 C 93.167969 42.367188 92.375 41.492188 93.015625 40.746094 C 91.441406 38.460938 89.433594 36.609375 88 34.183594 C 85.925781 33.683594 84.277344 32.761719 81.4375 33.027344 C 80.773438 33.027344 80.640625 32.570312 80.28125 32.253906 C 80.019531 32.023438 79.640625 31.851562 79.511719 31.484375 C 78.492188 31.386719 77.824219 31.609375 76.808594 31.484375 C 76.023438 31.382812 75.191406 30.8125 74.492188 30.710938 C 72.726562 30.460938 71.160156 30.910156 69.476562 30.328125 C 69.335938 30.277344 69.476562 29.960938 69.09375 29.941406 C 68.988281 29.9375 68.796875 29.980469 68.707031 29.941406 C 68.363281 29.804688 67.253906 29.503906 66.390625 29.167969 C 66.230469 29.105469 66.40625 28.800781 66.003906 28.78125 C 65.902344 28.777344 65.710938 28.820312 65.621094 28.78125 C 65.382812 28.6875 65.304688 28.421875 65.234375 28.398438 C 64.59375 28.164062 63.859375 28.152344 63.304688 28.011719 C 63.207031 27.988281 63.269531 27.644531 62.917969 27.625 C 62.027344 27.578125 61.769531 27.550781 60.988281 27.238281 C 60.828125 27.175781 59.464844 26.875 59.058594 26.46875 C 57.671875 27.394531 57.515625 29.554688 56.359375 30.710938 C 55.429688 30.554688 55.519531 31.417969 54.429688 31.097656 C 53.75 31.449219 53.722656 32.449219 53.273438 33.027344 C 52.339844 32.867188 52.433594 33.734375 51.34375 33.414062 C 50.144531 33.886719 49.792969 35.207031 47.871094 34.957031 C 48.117188 34.628906 47.949219 33.664062 48.253906 33.414062 C 48.898438 32.882812 48.441406 31.976562 49.027344 31.097656 C 49.308594 30.675781 49.542969 30.394531 49.800781 29.941406 C 50.125 29.363281 50.339844 28.324219 50.570312 28.011719 C 50.816406 27.679688 51.628906 27.339844 52.113281 26.855469 C 52.574219 26.394531 52.929688 25.542969 53.273438 25.308594 C 53.734375 24.996094 54.269531 25.148438 54.816406 24.925781 C 54.980469 24.855469 54.792969 24.5625 55.199219 24.539062 C 56.242188 24.484375 57.113281 23.722656 58.289062 22.996094 C 60.726562 23.5625 63.839844 23.554688 66.777344 23.765625 C 67.394531 23.8125 67.4375 24.089844 67.933594 24.152344 C 70.121094 24.414062 72.320312 23.824219 74.109375 24.152344 C 75.042969 24.324219 76.039062 24.9375 76.808594 25.308594 C 78.15625 25.5625 78.914062 24.511719 80.667969 24.925781 C 81.535156 25.128906 81.617188 25.238281 83.367188 24.925781 C 84.433594 24.734375 85.136719 23.941406 86.457031 24.152344 C 87.957031 24.210938 88.144531 24.964844 89.929688 25.308594 C 91.691406 24.449219 95.160156 22.234375 97.257812 24.152344 C 97.765625 23.757812 98.683594 23.773438 99.1875 23.382812 C 99.808594 23.296875 99.378906 22.367188 99.574219 21.835938 C 99.632812 21.679688 100.328125 21.164062 100.347656 21.066406 C 100.484375 20.347656 99.945312 19.902344 99.960938 19.136719 C 99.960938 19.214844 100.335938 18.964844 100.347656 18.75 C 100.394531 17.773438 100.277344 16.871094 100.730469 16.050781 C 100.84375 15.84375 101.09375 16.097656 101.117188 15.664062 C 101.171875 14.65625 101.84375 14.976562 101.890625 14.121094 C 101.933594 13.316406 102.796875 13.964844 103.433594 13.347656 C 103.6875 13.101562 103.515625 12.394531 103.820312 12.191406 C 104.175781 12.105469 104.621094 12.300781 104.976562 12.191406 C 105.375 12.070312 105.910156 11.992188 106.519531 11.804688 C 106.683594 11.753906 106.964844 11.417969 106.910156 11.417969 C 107.542969 11.351562 107.558594 11.789062 108.0625 11.804688 C 108.476562 11.816406 108.808594 11.414062 108.835938 11.417969 C 109.152344 11.445312 109.480469 11.75 109.992188 11.804688 C 110.851562 11.894531 111.179688 11.839844 111.921875 12.191406 C 112.105469 12.28125 111.882812 12.554688 112.308594 12.578125 C 112.785156 12.605469 112.972656 13.164062 113.464844 13.734375 C 113.691406 13.996094 113.761719 14.507812 114.238281 14.507812 C 114.984375 14.507812 114.257812 15.6875 114.621094 16.050781 C 114.652344 16.082031 114.996094 16.011719 115.007812 16.050781 C 115.105469 16.390625 114.871094 16.886719 115.007812 17.207031 C 115.082031 17.378906 115.351562 17.195312 115.394531 17.59375 C 115.460938 18.214844 115.082031 18.476562 115.007812 19.136719 C 114.863281 20.4375 114.78125 21.847656 114.621094 23.382812 C 114.894531 24.78125 117.433594 23.914062 118.867188 24.152344 C 119.625 23.84375 119.734375 24.828125 120.023438 24.925781 C 120.488281 25.078125 121.101562 24.78125 121.566406 24.925781 C 121.726562 24.972656 122.246094 25.679688 122.339844 25.695312 C 122.960938 25.808594 123.003906 25.328125 123.496094 25.308594 C 122.359375 24 120.402344 23.515625 119.636719 21.835938 C 118.921875 21.785156 118.351562 21.582031 118.09375 21.066406 C 117.738281 20.652344 116.671875 20.945312 116.9375 19.910156 C 117.933594 19.285156 120.144531 20.125 120.796875 21.066406 C 121.078125 21.039062 121.027344 20.382812 120.796875 19.910156 C 120.679688 19.667969 120.117188 19.335938 120.023438 19.136719 C 119.65625 18.359375 119.453125 17.515625 119.253906 16.820312 C 118.941406 16.488281 118.195312 16.59375 118.09375 16.050781 C 118.214844 14.753906 119.382812 14.507812 120.410156 14.121094 C 120.121094 15.566406 121.882812 14.960938 121.953125 16.050781 C 122.863281 16.042969 123.089844 16.714844 124.269531 16.4375 C 125.1875 17.578125 126.550781 18.273438 127.742188 19.136719 C 128.203125 20.464844 128.578125 21.667969 129.285156 22.609375 C 131.753906 25.898438 137.097656 26.390625 140.859375 28.398438 C 141.167969 29.117188 141.503906 29.808594 141.632812 30.710938 C 141.925781 31.832031 143.460938 31.710938 143.175781 33.414062 C 143.675781 34.582031 142.40625 34.09375 142.019531 34.570312 C 141.972656 34.625 142.074219 34.921875 142.019531 34.957031 C 141.875 35.039062 141.347656 34.832031 141.246094 34.957031 C 141.207031 35.003906 141.292969 35.320312 141.246094 35.34375 C 141.105469 35.40625 140.566406 35.230469 140.472656 35.34375 C 140.058594 35.851562 139.683594 35.503906 138.929688 35.726562 C 137.972656 36.011719 137.117188 36.800781 135.074219 36.5 C 134.480469 36.414062 133.855469 35.792969 133.144531 35.726562 C 132.480469 35.664062 132.300781 36.085938 131.601562 36.113281 C 130.734375 36.144531 130.410156 35.5625 128.898438 35.726562 C 128.203125 35.804688 127.269531 36.0625 126.582031 36.5 C 126.015625 36.863281 124.464844 36.753906 123.496094 37.273438 C 122.769531 37.3125 123.230469 38.546875 122.339844 38.429688 C 122.292969 40.21875 122.429688 40.867188 121.953125 42.289062 C 121.90625 42.421875 121.585938 42.289062 121.566406 42.671875 C 121.535156 43.230469 121.15625 45.222656 120.796875 45.761719 C 120.261719 46.5625 119.984375 47.699219 120.023438 49.234375 C 119.648438 49.246094 119.722656 49.703125 119.636719 50.003906 C 118.34375 50.378906 117.710938 51.425781 116.9375 52.320312 C 117.945312 53.28125 116.976562 54.515625 116.550781 55.792969 C 116.289062 56.574219 116.367188 57.507812 116.164062 58.109375 C 116.121094 58.246094 115.800781 58.113281 115.78125 58.492188 C 115.765625 58.8125 115.230469 59.109375 115.394531 59.652344 C 114.199219 60.253906 113.367188 61.230469 112.308594 61.964844 C 111.289062 65.558594 114.507812 66.863281 113.851562 71.226562 C 114.480469 72.269531 115.359375 73.0625 116.550781 73.542969 C 116.941406 75.398438 118.546875 76.125 118.480469 77.785156 C 118.484375 77.71875 118.105469 77.945312 118.09375 78.171875 C 118.054688 78.941406 117.894531 79.320312 117.324219 80.101562 C 116.625 81.054688 115.085938 82.378906 114.238281 83.574219 C 109.6875 84.039062 108.871094 88.242188 104.589844 88.976562 C 103.898438 90.621094 103.203125 92.492188 102.273438 93.992188 C 102.144531 94.203125 101.910156 93.933594 101.890625 94.378906 C 101.867188 94.847656 101.144531 95.308594 100.730469 95.921875 C 100.449219 96.339844 100.207031 96.621094 99.960938 97.078125 C 98.699219 99.414062 96.019531 101.675781 93.398438 103.253906 C 93.757812 103.859375 93.039062 104.269531 93.015625 104.410156 C 92.515625 107.253906 93.382812 110.53125 94.171875 112.511719 C 93.78125 112.800781 93.410156 112.988281 93.015625 113.285156 C 92.15625 113.925781 92.203125 114.121094 91.085938 113.285156 C 90.785156 113.058594 90.363281 112.988281 90.3125 112.511719 C 89.566406 112.628906 89.058594 112.910156 88.382812 112.511719 C 88.359375 112.496094 88.746094 111.984375 88.769531 111.785156 C 88.738281 111.832031 88.417969 111.417969 88.378906 111.355469 C 88.375 111.347656 88.375 111.347656 88.375 111.347656 C 88.121094 111.105469 87.394531 111.082031 87.613281 111.355469 C 87.570312 111.300781 86.84375 110.980469 86.839844 110.96875 C 86.757812 110.5 87.691406 110.183594 86.839844 109.425781 C 84.753906 109.652344 84.042969 111.257812 83.753906 113.285156 C 82.820312 113.308594 82.691406 114.25 82.210938 114.828125 C 81.847656 115.269531 80.582031 115.59375 81.050781 116.757812 C 80.792969 117.128906 79.492188 116.695312 79.125 117.144531 C 79.109375 117.164062 77.660156 118.402344 77.578125 118.300781 C 76.683594 117.183594 78.105469 119.5625 76.808594 118.300781 C 76.25 118.46875 76.847656 118.640625 76.808594 119.070312 C 75.53125 119.207031 75.132812 120.226562 74.492188 121 C 73.867188 121.109375 73.828125 120.636719 73.335938 120.617188 C 73.769531 121.109375 73.546875 121.109375 73.335938 121.386719 C 73.214844 121.542969 72.71875 122.027344 72.5625 122.160156 C 72.257812 122.417969 71.757812 122.28125 71.40625 122.542969 C 71.40625 122.328125 71.09375 122.105469 71.019531 122.542969 C 69.882812 123.078125 69.457031 124.328125 68.320312 124.859375 C 68.167969 125.28125 67.855469 125.785156 68.320312 125.246094 C 69.429688 124.726562 69.859375 123.523438 70.9375 122.976562 C 70.125 123.8125 69.058594 125.285156 68.320312 126.015625 C 67.695312 126.125 67.65625 125.652344 67.160156 125.632812 C 67.609375 126.203125 67.609375 126.605469 67.160156 127.175781 C 66.433594 127.464844 66.894531 128.324219 66.003906 127.5625 C 66.460938 128.726562 66.945312 129.859375 66.390625 131.035156 C 65.425781 131.59375 64.875 131.96875 63.6875 131.417969 C 62.386719 132.6875 62.765625 135.644531 61.375 136.820312 C 61.5 138.621094 61.074219 139.867188 60.601562 141.066406 C 60.15625 141.003906 59.917969 141.152344 59.832031 141.453125 C 57.871094 141.980469 57.679688 138.738281 56.359375 139.910156 C 55.199219 139.652344 56.730469 139.082031 56.359375 138.363281 C 56.28125 136.890625 55.363281 138.355469 54.816406 137.59375 C 54.609375 137.308594 55.578125 136.875 55.585938 136.820312 C 55.652344 136.289062 55.046875 135.917969 54.042969 136.050781 C 54.457031 135.949219 54.171875 135.152344 54.429688 134.890625 C 54.890625 134.429688 54.222656 134.585938 54.429688 133.734375 C 54.449219 133.648438 54.796875 133.691406 54.816406 133.347656 C 54.820312 133.246094 54.777344 133.054688 54.816406 132.960938 C 54.878906 132.800781 55.175781 131.4375 55.585938 131.035156 C 55.65625 130.191406 55.269531 129.808594 54.429688 129.875 C 54.5625 129.371094 55.109375 129.269531 55.199219 128.71875 C 55.03125 128.242188 54.707031 127.925781 54.042969 127.945312 C 54.171875 126.582031 55.105469 126.996094 54.429688 125.632812 C 55.921875 124.554688 57.664062 123.71875 59.445312 122.929688 C 60.324219 122.824219 60.894531 123.023438 60.988281 123.703125 C 61.566406 123.695312 61.027344 123.234375 60.988281 123.316406 C 61.242188 122.757812 62.273438 122.769531 62.53125 121.773438 C 63.425781 121.648438 64.011719 121.835938 64.460938 122.160156 C 63.726562 121.417969 64.988281 121.085938 65.746094 120.472656 C 65.703125 120.519531 65.660156 120.566406 65.617188 120.617188 C 65.390625 120.875 64.746094 121.425781 65.234375 121.773438 C 65.285156 121.082031 65.917969 121.160156 66.390625 120.617188 C 67.570312 119.257812 66.824219 119.476562 66.035156 120.195312 C 66.265625 119.933594 66.757812 119.417969 66.777344 119.070312 C 66.804688 118.578125 67.421875 118.585938 67.546875 118.300781 C 67.914062 117.488281 67.542969 117.699219 68.320312 117.914062 C 67.285156 115.644531 69.355469 118.21875 68.320312 115.984375 C 68.523438 115.910156 68.839844 116.554688 69.089844 116.371094 C 69.121094 116.347656 68.476562 115.503906 68.707031 115.214844 C 68.753906 115.148438 69.394531 115.761719 69.476562 115.597656 C 69.539062 115.476562 68.992188 114.859375 69.089844 114.441406 C 69.164062 114.132812 69.589844 114.832031 69.488281 114.832031 Z M 75.652344 119.457031 C 75.675781 119.222656 75.710938 119.003906 76.039062 119.070312 C 75.691406 118.027344 75.171875 119.957031 74.492188 119.84375 C 73.679688 121.4375 75.003906 119.695312 75.652344 119.457031 Z M 64.859375 108.273438 C 65.351562 107.914062 65.003906 108.070312 64.859375 108.273438 C 64.453125 108.566406 64.375 108.640625 64.085938 109.042969 C 63.59375 109.402344 63.941406 109.25 64.085938 109.042969 C 64.492188 108.75 64.570312 108.679688 64.859375 108.273438 " fill-opacity="1" fill-rule="nonzero"/></g><path fill="#070707" d="M 76.039062 119.070312 C 75.710938 119.003906 75.675781 119.222656 75.652344 119.457031 C 75.003906 119.699219 73.679688 121.4375 74.492188 119.84375 C 75.171875 119.957031 75.691406 118.027344 76.039062 119.070312 " fill-opacity="1" fill-rule="nonzero"/><path fill="#070707" d="M 71.40625 122.546875 C 71.101562 122.480469 71.050781 122.667969 71.023438 122.882812 C 70.996094 122.914062 70.964844 122.945312 70.9375 122.976562 C 69.859375 123.523438 69.429688 124.726562 68.320312 125.246094 C 67.855469 125.785156 68.167969 125.28125 68.320312 124.859375 C 69.457031 124.328125 69.882812 123.078125 71.019531 122.546875 C 71.09375 122.105469 71.40625 122.328125 71.40625 122.546875 " fill-opacity="1" fill-rule="nonzero"/><path fill="#070707" d="M 71.023438 122.886719 C 71.050781 122.667969 71.101562 122.480469 71.40625 122.546875 C 71.292969 122.632812 71.160156 122.75 71.023438 122.886719 " fill-opacity="1" fill-rule="nonzero"/><path fill="#070707" d="M 71.019531 112.898438 C 71.167969 112.695312 71.515625 112.539062 71.019531 112.898438 " fill-opacity="1" fill-rule="nonzero"/><path fill="#070707" d="M 71.023438 122.886719 C 71.023438 122.898438 71.019531 122.914062 71.019531 122.929688 C 70.992188 122.941406 70.964844 122.957031 70.9375 122.976562 C 70.964844 122.945312 70.992188 122.914062 71.023438 122.886719 " fill-opacity="1" fill-rule="nonzero"/><path fill="#070707" d="M 71.019531 112.898438 C 70.730469 113.304688 70.652344 113.375 70.25 113.671875 C 70.539062 113.265625 70.617188 113.191406 71.019531 112.898438 " fill-opacity="1" fill-rule="nonzero"/><path fill="#070707" d="M 70.25 113.671875 C 70.101562 113.875 69.753906 114.03125 70.25 113.671875 " fill-opacity="1" fill-rule="nonzero"/><path fill="#070707" d="M 66.035156 120.195312 C 66.824219 119.476562 67.570312 119.257812 66.390625 120.617188 C 65.917969 121.160156 65.285156 121.082031 65.234375 121.773438 C 64.746094 121.425781 65.390625 120.875 65.617188 120.617188 C 65.660156 120.566406 65.703125 120.519531 65.746094 120.472656 C 65.84375 120.398438 65.933594 120.320312 66.003906 120.230469 C 66.011719 120.21875 66.023438 120.207031 66.035156 120.195312 " fill-opacity="1" fill-rule="nonzero"/><path fill="#070707" d="M 66.035156 120.195312 C 66.023438 120.207031 66.011719 120.21875 66.003906 120.230469 C 65.933594 120.320312 65.84375 120.398438 65.746094 120.472656 C 65.84375 120.375 65.9375 120.28125 66.035156 120.195312 " fill-opacity="1" fill-rule="nonzero"/><path fill="#070707" d="M 114.734375 128.894531 C 114.734375 133.976562 110.617188 138.09375 105.539062 138.09375 C 100.457031 138.09375 96.339844 133.976562 96.339844 128.894531 C 96.339844 123.816406 100.457031 119.699219 105.539062 119.699219 C 110.617188 119.699219 114.734375 123.816406 114.734375 128.894531 " fill-opacity="1" fill-rule="nonzero"/><g fill="#d60404" fill-opacity="1"><g transform="translate(149.896256, 65.41296)"><g><path d="M 44.921875 -30.859375 L 44.921875 -47.578125 L 2.984375 -47.578125 L 2.984375 -37.171875 L 8.15625 -35.8125 L 8.15625 -11.6875 L 2.984375 -10.328125 L 2.984375 0 L 28.6875 0 L 28.6875 -10.328125 L 22.15625 -11.6875 L 22.15625 -19.984375 L 33.578125 -19.984375 L 33.578125 -28.140625 L 22.15625 -28.140625 L 22.15625 -35.8125 L 33.578125 -35.8125 L 34.9375 -30.859375 Z M 44.921875 -30.859375 "/></g></g></g><g fill="#d60404" fill-opacity="1"><g transform="translate(196.512159, 65.41296)"><g><path d="M 43.03125 -8.5 L 43.03125 -39.28125 L 33.09375 -47.578125 L 12.921875 -47.578125 L 2.984375 -39.28125 L 2.984375 -8.5 L 13.25 0 L 32.6875 0 C 34.414062 -1.40625 36.140625 -2.820312 37.859375 -4.25 C 39.578125 -5.675781 41.300781 -7.09375 43.03125 -8.5 Z M 27.1875 -35.8125 L 29.015625 -34.390625 L 29.015625 -13.25 L 27.125 -11.6875 L 18.890625 -11.6875 L 17 -13.25 L 17 -34.390625 L 18.828125 -35.8125 Z M 27.1875 -35.8125 "/></g></g></g><g fill="#d60404" fill-opacity="1"><g transform="translate(242.516479, 65.41296)"><g><path d="M 43.03125 -8.5 L 43.03125 -39.28125 L 33.09375 -47.578125 L 12.921875 -47.578125 L 2.984375 -39.28125 L 2.984375 -8.5 L 13.25 0 L 32.6875 0 C 34.414062 -1.40625 36.140625 -2.820312 37.859375 -4.25 C 39.578125 -5.675781 41.300781 -7.09375 43.03125 -8.5 Z M 27.1875 -35.8125 L 29.015625 -34.390625 L 29.015625 -13.25 L 27.125 -11.6875 L 18.890625 -11.6875 L 17 -13.25 L 17 -34.390625 L 18.828125 -35.8125 Z M 27.1875 -35.8125 "/></g></g></g><g fill="#d60404" fill-opacity="1"><g transform="translate(288.520798, 65.41296)"><g><path d="M 48.46875 -27.9375 L 48.46875 -47.578125 L 1.15625 -47.578125 L 1.15625 -27.9375 L 11.21875 -27.9375 L 12.578125 -36.5625 L 17.8125 -36.5625 L 17.8125 -11.6875 L 12.03125 -10.328125 L 12.03125 0 L 37.71875 0 L 37.71875 -10.328125 L 31.875 -11.6875 L 31.875 -36.5625 L 37.109375 -36.5625 L 38.46875 -27.9375 Z M 48.46875 -27.9375 "/></g></g></g><g fill="#d60404" fill-opacity="1"><g transform="translate(146.295203, 127.773315)"><g><path d="M 47.171875 -28.40625 L 47.171875 -39.828125 L 37.921875 -47.578125 L 2.984375 -47.578125 L 2.984375 -37.171875 L 8.15625 -35.8125 L 8.15625 -11.6875 L 2.984375 -10.328125 L 2.984375 0 L 37.796875 0 L 47.4375 -8.015625 L 47.4375 -20.796875 L 42.6875 -24.734375 Z M 22.21875 -20.328125 L 31.8125 -20.328125 L 33.4375 -18.96875 L 33.4375 -13.125 L 31.671875 -11.6875 L 22.21875 -11.6875 Z M 22.21875 -35.8125 L 31.671875 -35.8125 L 33.3125 -34.453125 L 33.3125 -29.96875 L 31.671875 -28.609375 L 22.21875 -28.609375 Z M 22.21875 -35.8125 "/></g></g></g><g fill="#d60404" fill-opacity="1"><g transform="translate(196.852389, 127.773315)"><g><path d="M 45.609375 -11.6875 L 36.4375 -47.578125 L 8.96875 -47.578125 L 8.96875 -37.171875 L 13.390625 -35.8125 L 6.453125 -11.6875 L 1.21875 -10.328125 L 1.21875 0 L 21.609375 0 L 21.609375 -10.328125 L 18.28125 -11.6875 L 19.4375 -15.90625 L 29.703125 -15.90625 L 30.921875 -11.6875 L 27.328125 -10.328125 L 27.328125 0 L 51.453125 0 L 51.453125 -10.328125 Z M 24.40625 -34.734375 L 27.453125 -24.0625 L 21.40625 -24.0625 Z M 24.40625 -34.734375 "/></g></g></g><g fill="#d60404" fill-opacity="1"><g transform="translate(249.516128, 127.773315)"><g><path d="M 28 -37.171875 L 28 -47.578125 L 2.984375 -47.578125 L 2.984375 -37.171875 L 8.15625 -35.8125 L 8.15625 -11.6875 L 2.984375 -10.328125 L 2.984375 0 L 44.921875 0 L 44.921875 -18.140625 L 34.875 -18.140625 L 33.515625 -11.6875 L 22.21875 -11.6875 L 22.21875 -35.8125 Z M 28 -37.171875 "/></g></g></g><g fill="#d60404" fill-opacity="1"><g transform="translate(295.58841, 127.773315)"><g><path d="M 28 -37.171875 L 28 -47.578125 L 2.984375 -47.578125 L 2.984375 -37.171875 L 8.15625 -35.8125 L 8.15625 -11.6875 L 2.984375 -10.328125 L 2.984375 0 L 44.921875 0 L 44.921875 -18.140625 L 34.875 -18.140625 L 33.515625 -11.6875 L 22.21875 -11.6875 L 22.21875 -35.8125 Z M 28 -37.171875 "/></g></g></g><g fill="#ffffff" fill-opacity="1"><g transform="translate(51.034075, 184.675552)"><g><path d="M 8.171875 -12.5625 C 8.171875 -10.125 8.410156 -8.390625 8.890625 -7.359375 C 9.367188 -6.328125 10.15625 -5.8125 11.25 -5.8125 C 12.351562 -5.8125 13.910156 -6.070312 15.921875 -6.59375 L 17 -0.78125 C 14.820312 0.0078125 12.632812 0.40625 10.4375 0.40625 C 7.132812 0.40625 4.734375 -0.679688 3.234375 -2.859375 C 1.734375 -5.046875 0.984375 -8.304688 0.984375 -12.640625 C 0.984375 -16.972656 1.765625 -20.285156 3.328125 -22.578125 C 4.898438 -24.878906 7.460938 -26.03125 11.015625 -26.03125 C 13.109375 -26.03125 15.101562 -25.585938 17 -24.703125 L 15.875 -18.3125 C 13.726562 -19.03125 12.234375 -19.390625 11.390625 -19.390625 C 10.171875 -19.390625 9.328125 -18.859375 8.859375 -17.796875 C 8.398438 -16.742188 8.171875 -15 8.171875 -12.5625 Z M 8.171875 -12.5625 "/></g></g></g><g fill="#ffffff" fill-opacity="1"><g transform="translate(72.403333, 184.675552)"><g><path d="M 20.75 0 L 13.734375 0 L 13.734375 -9.6875 L 8.90625 -9.6875 L 8.90625 0 L 1.8125 0 L 1.8125 -25.609375 L 8.90625 -25.609375 L 8.90625 -15.546875 L 13.734375 -15.546875 L 13.734375 -25.609375 L 20.75 -25.609375 Z M 20.75 0 "/></g></g></g><g fill="#ffffff" fill-opacity="1"><g transform="translate(99.259115, 184.675552)"><g><path d="M 20.21875 0 L 13.328125 0 L 12.546875 -4.046875 L 7.671875 -4.046875 L 6.890625 0 L 0.328125 0 L 5.03125 -25.609375 L 15.515625 -25.609375 Z M 11.75 -8.875 L 10.3125 -18.03125 L 10.03125 -18.03125 L 8.578125 -8.875 Z M 11.75 -8.875 "/></g></g></g><g fill="#ffffff" fill-opacity="1"><g transform="translate(124.258563, 184.675552)"><g><path d="M 26.609375 0 L 20.125 0 L 20.125 -13.359375 L 19.765625 -13.359375 L 17.328125 0 L 10.6875 0 L 8.375 -13.359375 L 7.96875 -13.359375 L 7.96875 0 L 1.5625 0 L 2.4375 -25.609375 L 11.71875 -25.609375 L 14.03125 -11.75 L 14.359375 -11.75 L 16.578125 -25.609375 L 25.734375 -25.609375 Z M 26.609375 0 "/></g></g></g><g fill="#ffffff" fill-opacity="1"><g transform="translate(156.889637, 184.675552)"><g><path d="M 10.640625 -8.375 L 8.75 -8.375 L 8.75 0 L 1.8125 0 L 1.8125 -25.609375 L 10.1875 -25.609375 C 13.132812 -25.609375 15.320312 -24.9375 16.75 -23.59375 C 18.175781 -22.25 18.890625 -20.035156 18.890625 -16.953125 C 18.890625 -13.867188 18.210938 -11.664062 16.859375 -10.34375 C 15.515625 -9.03125 13.441406 -8.375 10.640625 -8.375 Z M 11.421875 -13.9375 C 11.671875 -14.40625 11.796875 -15.242188 11.796875 -16.453125 C 11.796875 -17.671875 11.65625 -18.523438 11.375 -19.015625 C 11.101562 -19.515625 10.554688 -19.765625 9.734375 -19.765625 L 8.75 -19.765625 L 8.75 -13.234375 L 9.90625 -13.234375 C 10.675781 -13.234375 11.179688 -13.46875 11.421875 -13.9375 Z M 11.421875 -13.9375 "/></g></g></g><g fill="#ffffff" fill-opacity="1"><g transform="translate(180.486509, 184.675552)"><g><path d="M 9.234375 0 L 2.234375 0 L 2.234375 -25.609375 L 9.234375 -25.609375 Z M 9.234375 0 "/></g></g></g><g fill="#ffffff" fill-opacity="1"><g transform="translate(196.410486, 184.675552)"><g><path d="M 3.359375 -22.9375 C 4.941406 -25 7.535156 -26.03125 11.140625 -26.03125 C 14.742188 -26.03125 17.320312 -25.007812 18.875 -22.96875 C 20.425781 -20.9375 21.203125 -17.628906 21.203125 -13.046875 C 21.203125 -8.472656 20.40625 -5.085938 18.8125 -2.890625 C 17.21875 -0.691406 14.628906 0.40625 11.046875 0.40625 C 7.472656 0.40625 4.898438 -0.675781 3.328125 -2.84375 C 1.765625 -5.019531 0.984375 -8.394531 0.984375 -12.96875 C 0.984375 -17.550781 1.773438 -20.875 3.359375 -22.9375 Z M 14.109375 -13.03125 C 14.109375 -15.5625 13.90625 -17.273438 13.5 -18.171875 C 13.101562 -19.066406 12.289062 -19.515625 11.0625 -19.515625 C 9.84375 -19.515625 9.054688 -19.066406 8.703125 -18.171875 C 8.347656 -17.273438 8.171875 -15.578125 8.171875 -13.078125 L 8.171875 -12.09375 C 8.171875 -9.414062 8.367188 -7.65625 8.765625 -6.8125 C 9.160156 -5.976562 9.96875 -5.5625 11.1875 -5.5625 C 12.414062 -5.5625 13.207031 -5.960938 13.5625 -6.765625 C 13.925781 -7.566406 14.109375 -9.21875 14.109375 -11.71875 Z M 14.109375 -13.03125 "/></g></g></g><g fill="#ffffff" fill-opacity="1"><g transform="translate(223.060007, 184.675552)"><g><path d="M 20.5 0 L 13.734375 0 L 8.421875 -11.921875 L 8.078125 -11.921875 L 8.078125 0 L 1.8125 0 L 1.8125 -25.609375 L 8.78125 -25.609375 L 13.859375 -13.328125 L 14.1875 -13.328125 L 14.1875 -25.609375 L 20.5 -25.609375 Z M 20.5 0 "/></g></g></g><g fill="#ffffff" fill-opacity="1"><g transform="translate(249.833288, 184.675552)"><g><path d="M 20.75 0 L 13.734375 0 L 13.734375 -9.6875 L 8.90625 -9.6875 L 8.90625 0 L 1.8125 0 L 1.8125 -25.609375 L 8.90625 -25.609375 L 8.90625 -15.546875 L 13.734375 -15.546875 L 13.734375 -25.609375 L 20.75 -25.609375 Z M 20.75 0 "/></g></g></g><g fill="#ffffff" fill-opacity="1"><g transform="translate(276.689067, 184.675552)"><g><path d="M 9.03125 -8.421875 C 9.03125 -7.566406 9.207031 -6.929688 9.5625 -6.515625 C 9.925781 -6.109375 10.515625 -5.90625 11.328125 -5.90625 C 12.140625 -5.90625 12.703125 -6.101562 13.015625 -6.5 C 13.328125 -6.894531 13.484375 -7.546875 13.484375 -8.453125 L 13.484375 -25.609375 L 20.578125 -25.609375 L 20.578125 -8.046875 C 20.578125 -5.097656 19.769531 -2.953125 18.15625 -1.609375 C 16.550781 -0.265625 14.1875 0.40625 11.0625 0.40625 C 7.945312 0.40625 5.625 -0.257812 4.09375 -1.59375 C 2.570312 -2.925781 1.8125 -5.050781 1.8125 -7.96875 L 1.8125 -25.609375 L 9.03125 -25.609375 Z M 9.03125 -8.421875 "/></g></g></g><g fill="#ffffff" fill-opacity="1"><g transform="translate(303.54486, 184.675552)"><g><path d="M 19.84375 -7.390625 C 19.84375 -2.460938 17.203125 0 11.921875 0 L 1.8125 0 L 1.8125 -25.609375 L 11.71875 -25.609375 C 14.332031 -25.609375 16.269531 -25.078125 17.53125 -24.015625 C 18.789062 -22.960938 19.421875 -21.28125 19.421875 -18.96875 C 19.421875 -16.664062 18.472656 -14.90625 16.578125 -13.6875 L 16.578125 -13.453125 C 18.753906 -12.597656 19.84375 -10.578125 19.84375 -7.390625 Z M 10.265625 -4.578125 C 11.097656 -4.578125 11.65625 -4.757812 11.9375 -5.125 C 12.226562 -5.5 12.375 -6.269531 12.375 -7.4375 C 12.375 -8.613281 12.222656 -9.441406 11.921875 -9.921875 C 11.617188 -10.398438 11.066406 -10.640625 10.265625 -10.640625 L 8.953125 -10.640625 L 8.953125 -4.578125 Z M 10.3125 -14.640625 C 10.945312 -14.640625 11.382812 -14.832031 11.625 -15.21875 C 11.875 -15.601562 12 -16.285156 12 -17.265625 C 12 -18.242188 11.867188 -18.929688 11.609375 -19.328125 C 11.347656 -19.722656 10.898438 -19.921875 10.265625 -19.921875 L 8.953125 -19.921875 L 8.953125 -14.640625 Z M 10.3125 -14.640625 "/></g></g></g></svg>